<?xml version="1.0" encoding="utf-8"?>
<!-- Generator: Adobe Illustrator 22.1.0, SVG Export Plug-In . SVG Version: 6.00 Build 0)  -->
<svg version="1.1" id="Layer_1" xmlns="http://www.w3.org/2000/svg" xmlns:xlink="http://www.w3.org/1999/xlink" x="0px" y="0px"
	 viewBox="0 0 110.6 55.3" style="enable-background:new 0 0 110.6 55.3;" xml:space="preserve">
<style type="text/css">
	.st0{fill:#414042;}
	.st1{fill:#C9CACC;}
	.st2{fill:#44C8F5;}
	.st3{fill:#FFFFFF;}
	.st4{fill:#F5A4C7;}
	.st5{fill:url(#SVGID_1_);}
	.st6{fill:url(#SVGID_2_);}
	.st7{fill:url(#SVGID_3_);}
	.st8{fill:url(#SVGID_4_);}
	.st9{fill:#4D4D4F;}
</style>
<g>
	<path class="st0" d="M107.8,34l-0.1-34h-7.1h-1.9H86.9h-2H72h-2H57.6L28.3,34h12.4h2h12.9h2h11.7h1.9h10.2l5.6-6.8h11.1L98,34
		H107.8z M93.3,19.3l5.3-6.4l-0.2,6.4H93.3z"/>
	<g>
		<path class="st1" d="M99,0.9h7.7l0.1,32.1h-8l0.2-6.8H86.6L81,33h-9.7L99,0.9z M99.6,10.3l-8.2,10h7.9L99.6,10.3z"/>
	</g>
	<polygon class="st2" points="30.3,33 42.3,33 70,0.9 58,0.9 	"/>
	<polygon class="st3" points="42.7,33 57.2,33 84.9,0.9 70.4,0.9 	"/>
	<polygon class="st4" points="57.6,33 70.8,33 98.6,0.9 85.3,0.9 	"/>
	<linearGradient id="SVGID_1_" gradientUnits="userSpaceOnUse" x1="50.1542" y1="33.0489" x2="50.1542" y2="0.9089">
		<stop  offset="0" style="stop-color:#9AB7E0"/>
		<stop  offset="4.401677e-02" style="stop-color:#FFFFFF"/>
		<stop  offset="0.1817" style="stop-color:#FFFFFF"/>
		<stop  offset="0.5248" style="stop-color:#9AB7E0"/>
		<stop  offset="0.83" style="stop-color:#FFFFFF"/>
		<stop  offset="0.9506" style="stop-color:#FFFFFF"/>
		<stop  offset="1" style="stop-color:#9AB7E0"/>
	</linearGradient>
	<polygon class="st5" points="30.3,33 42.3,33 70,0.9 58,0.9 	"/>
	<linearGradient id="SVGID_2_" gradientUnits="userSpaceOnUse" x1="63.8035" y1="33.0489" x2="63.8035" y2="0.9089">
		<stop  offset="0" style="stop-color:#A9ABAD"/>
		<stop  offset="4.401677e-02" style="stop-color:#FFFFFF"/>
		<stop  offset="0.1817" style="stop-color:#FFFFFF"/>
		<stop  offset="0.5248" style="stop-color:#A9ABAD"/>
		<stop  offset="0.83" style="stop-color:#FFFFFF"/>
		<stop  offset="0.9506" style="stop-color:#FFFFFF"/>
		<stop  offset="1" style="stop-color:#A9ABAD"/>
	</linearGradient>
	<polygon class="st6" points="42.7,33 57.2,33 84.9,0.9 70.4,0.9 	"/>
	<linearGradient id="SVGID_3_" gradientUnits="userSpaceOnUse" x1="78.0841" y1="33.0489" x2="78.0841" y2="0.9089">
		<stop  offset="0" style="stop-color:#C98FBF"/>
		<stop  offset="4.401677e-02" style="stop-color:#FFFFFF"/>
		<stop  offset="0.1817" style="stop-color:#FFFFFF"/>
		<stop  offset="0.5248" style="stop-color:#C98FBF"/>
		<stop  offset="0.83" style="stop-color:#FFFFFF"/>
		<stop  offset="0.9506" style="stop-color:#FFFFFF"/>
		<stop  offset="1" style="stop-color:#C98FBF"/>
	</linearGradient>
	<polygon class="st7" points="57.6,33 70.8,33 98.6,0.9 85.3,0.9 	"/>
	<g>
		<linearGradient id="SVGID_4_" gradientUnits="userSpaceOnUse" x1="89.0904" y1="33.0489" x2="89.0904" y2="0.9089">
			<stop  offset="0" style="stop-color:#A9ABAD"/>
			<stop  offset="4.401677e-02" style="stop-color:#FFFFFF"/>
			<stop  offset="0.1817" style="stop-color:#FFFFFF"/>
			<stop  offset="0.5248" style="stop-color:#A8A8A8"/>
			<stop  offset="0.83" style="stop-color:#FFFFFF"/>
			<stop  offset="0.9506" style="stop-color:#FFFFFF"/>
			<stop  offset="1" style="stop-color:#A9ABAD"/>
		</linearGradient>
		<path class="st8" d="M99,0.9h7.7l0.1,32.1h-8l0.2-6.8H86.6L81,33h-9.7L99,0.9z M99.6,10.3l-8.2,10h7.9L99.6,10.3z"/>
	</g>
</g>
<g>
	<path class="st9" d="M3.7,41.3h1.5l3.7,8.5H6.8L6.1,48H2.8l-0.7,1.8H0L3.7,41.3z M4.4,43.7l-1,2.6h2.1L4.4,43.7z"/>
	<path class="st9" d="M17.8,46.5c0,0.5-0.1,1-0.2,1.4c-0.2,0.4-0.4,0.8-0.7,1.1c-0.3,0.3-0.7,0.6-1.1,0.7s-1,0.3-1.5,0.3
		c-0.6,0-1.1-0.1-1.6-0.3c-0.4-0.2-0.8-0.4-1.1-0.7c-0.3-0.3-0.5-0.7-0.7-1.1c-0.2-0.4-0.2-0.9-0.2-1.4v-5.2h1.9v5.1
		c0,0.3,0,0.5,0.1,0.7s0.2,0.4,0.4,0.6s0.3,0.3,0.5,0.4s0.4,0.1,0.7,0.1s0.5,0,0.7-0.1s0.4-0.2,0.5-0.4c0.2-0.2,0.3-0.4,0.4-0.6
		s0.1-0.5,0.1-0.7v-5.1h1.9V46.5z"/>
	<path class="st9" d="M22.1,42.9h-2.4v-1.7h6.7v1.7H24v6.8h-1.9V42.9z"/>
	<path class="st9" d="M27.8,45.5c0-0.7,0.1-1.3,0.3-1.8c0.2-0.6,0.5-1,1-1.4c0.4-0.4,0.9-0.7,1.5-0.9c0.6-0.2,1.2-0.3,1.8-0.3
		s1.3,0.1,1.8,0.3c0.6,0.2,1,0.5,1.5,0.9c0.4,0.4,0.7,0.9,1,1.4c0.2,0.6,0.3,1.2,0.3,1.8s-0.1,1.3-0.3,1.8c-0.2,0.6-0.5,1-1,1.4
		s-0.9,0.7-1.5,0.9C33.7,49.9,33,50,32.4,50s-1.3-0.1-1.8-0.3c-0.6-0.2-1-0.5-1.5-0.9s-0.7-0.9-1-1.4S27.8,46.2,27.8,45.5z
		 M29.7,45.5c0,0.4,0.1,0.8,0.2,1.1s0.3,0.6,0.5,0.9c0.2,0.2,0.5,0.4,0.8,0.6c0.3,0.1,0.7,0.2,1.1,0.2c0.4,0,0.8-0.1,1.1-0.2
		c0.3-0.1,0.6-0.3,0.8-0.6c0.2-0.2,0.4-0.5,0.5-0.9s0.2-0.7,0.2-1.1c0-0.4-0.1-0.8-0.2-1.1s-0.3-0.6-0.5-0.9
		c-0.2-0.2-0.5-0.4-0.8-0.6s-0.7-0.2-1.1-0.2c-0.4,0-0.8,0.1-1.1,0.2s-0.6,0.3-0.8,0.6c-0.2,0.2-0.4,0.5-0.5,0.9
		S29.7,45.1,29.7,45.5z"/>
	<path class="st9" d="M43.3,43.4c-0.2-0.2-0.4-0.3-0.6-0.4c-0.3-0.1-0.5-0.1-0.7-0.1c-0.1,0-0.3,0-0.4,0c-0.1,0-0.3,0.1-0.4,0.2
		s-0.2,0.2-0.3,0.3c-0.1,0.1-0.1,0.2-0.1,0.4c0,0.3,0.1,0.5,0.3,0.6c0.2,0.1,0.4,0.3,0.7,0.3c0.3,0.1,0.6,0.2,0.9,0.3
		c0.3,0.1,0.6,0.2,0.9,0.4c0.3,0.2,0.5,0.4,0.7,0.7c0.2,0.3,0.3,0.7,0.3,1.2c0,0.5-0.1,0.9-0.3,1.2c-0.2,0.4-0.4,0.6-0.7,0.9
		c-0.3,0.2-0.6,0.4-1,0.5c-0.4,0.1-0.8,0.2-1.3,0.2c-0.6,0-1.1-0.1-1.5-0.3s-0.9-0.4-1.3-0.8l1.3-1.5c0.2,0.3,0.4,0.5,0.7,0.6
		c0.3,0.1,0.6,0.2,0.9,0.2c0.2,0,0.3,0,0.5-0.1c0.2,0,0.3-0.1,0.4-0.2c0.1-0.1,0.2-0.2,0.3-0.3c0.1-0.1,0.1-0.2,0.1-0.4
		c0-0.3-0.1-0.5-0.3-0.6c-0.2-0.1-0.4-0.3-0.7-0.4c-0.3-0.1-0.6-0.2-1-0.3c-0.3-0.1-0.7-0.2-1-0.4s-0.5-0.4-0.7-0.7
		s-0.3-0.7-0.3-1.1c0-0.5,0.1-0.9,0.3-1.2c0.2-0.3,0.4-0.6,0.7-0.9c0.3-0.2,0.6-0.4,1-0.5c0.4-0.1,0.8-0.2,1.2-0.2
		c0.5,0,0.9,0.1,1.4,0.2c0.4,0.1,0.9,0.4,1.2,0.7L43.3,43.4z"/>
	<path class="st9" d="M46.9,41.3h3.2c0.4,0,0.9,0,1.2,0.1c0.4,0.1,0.7,0.2,1,0.4c0.3,0.2,0.5,0.5,0.7,0.8s0.3,0.8,0.3,1.3
		c0,0.5-0.1,0.9-0.2,1.2s-0.4,0.6-0.7,0.8c-0.3,0.2-0.6,0.3-1,0.4c-0.4,0.1-0.8,0.1-1.2,0.1h-1.4v3.3h-1.9V41.3z M48.8,44.9H50
		c0.2,0,0.3,0,0.5,0c0.2,0,0.3-0.1,0.4-0.2s0.2-0.2,0.3-0.3c0.1-0.1,0.1-0.3,0.1-0.5c0-0.2,0-0.4-0.1-0.5c-0.1-0.1-0.2-0.2-0.4-0.3
		c-0.2-0.1-0.3-0.1-0.5-0.1c-0.2,0-0.4,0-0.6,0h-1V44.9z"/>
	<path class="st9" d="M55.5,41.3h5.8V43h-3.9v1.6H61v1.7h-3.7V48h4.1v1.7h-6V41.3z"/>
	<path class="st9" d="M69.4,43.5c-0.2-0.2-0.4-0.4-0.7-0.5c-0.3-0.1-0.6-0.2-0.9-0.2c-0.4,0-0.7,0.1-1,0.2s-0.6,0.3-0.8,0.6
		c-0.2,0.2-0.4,0.5-0.5,0.9s-0.2,0.7-0.2,1.1c0,0.4,0.1,0.8,0.2,1.1s0.3,0.6,0.5,0.9s0.5,0.4,0.8,0.6c0.3,0.1,0.6,0.2,0.9,0.2
		c0.4,0,0.7-0.1,1-0.2c0.3-0.2,0.5-0.4,0.7-0.7l1.6,1.2c-0.4,0.5-0.8,0.9-1.4,1.1C69.1,49.9,68.6,50,68,50c-0.7,0-1.3-0.1-1.8-0.3
		c-0.6-0.2-1-0.5-1.5-0.9s-0.7-0.9-1-1.4s-0.3-1.2-0.3-1.8s0.1-1.3,0.3-1.8c0.2-0.6,0.5-1,1-1.4c0.4-0.4,0.9-0.7,1.5-0.9
		c0.6-0.2,1.2-0.3,1.8-0.3c0.2,0,0.5,0,0.8,0.1s0.5,0.1,0.8,0.2c0.3,0.1,0.5,0.2,0.7,0.4c0.2,0.2,0.4,0.4,0.6,0.6L69.4,43.5z"/>
	<path class="st9" d="M74.6,42.9h-2.4v-1.7h6.7v1.7h-2.4v6.8h-1.9V42.9z"/>
	<path class="st9" d="M80.7,41.3H84c0.4,0,0.8,0,1.2,0.1s0.7,0.2,1,0.4s0.5,0.5,0.7,0.8s0.3,0.7,0.3,1.2c0,0.6-0.2,1.1-0.5,1.5
		c-0.3,0.4-0.8,0.7-1.4,0.8l2.2,3.6h-2.2l-1.8-3.4h-0.9v3.4h-1.9V41.3z M82.6,44.8h1.1c0.2,0,0.3,0,0.5,0c0.2,0,0.4,0,0.5-0.1
		c0.2-0.1,0.3-0.2,0.4-0.3c0.1-0.1,0.2-0.3,0.2-0.5c0-0.2,0-0.4-0.1-0.5c-0.1-0.1-0.2-0.2-0.3-0.3c-0.1-0.1-0.3-0.1-0.5-0.1
		c-0.2,0-0.3,0-0.5,0h-1.2V44.8z"/>
	<path class="st9" d="M96.6,46.5c0,0.5-0.1,1-0.2,1.4c-0.2,0.4-0.4,0.8-0.7,1.1c-0.3,0.3-0.7,0.6-1.1,0.7S93.6,50,93,50
		c-0.6,0-1.1-0.1-1.6-0.3c-0.4-0.2-0.8-0.4-1.1-0.7c-0.3-0.3-0.5-0.7-0.7-1.1c-0.2-0.4-0.2-0.9-0.2-1.4v-5.2h1.9v5.1
		c0,0.3,0,0.5,0.1,0.7s0.2,0.4,0.4,0.6s0.3,0.3,0.5,0.4s0.4,0.1,0.7,0.1s0.5,0,0.7-0.1s0.4-0.2,0.5-0.4c0.2-0.2,0.3-0.4,0.4-0.6
		s0.1-0.5,0.1-0.7v-5.1h1.9V46.5z"/>
	<path class="st9" d="M99.2,41.3h2.8l2,5.5h0l2-5.5h2.8v8.5h-1.9v-6.5h0l-2.2,6.5h-1.4l-2.1-6.5h0v6.5h-1.9V41.3z"/>
</g>
</svg>
